<mxfile host="Electron" modified="2023-12-20T10:37:42.810Z" agent="Mozilla/5.0 (Macintosh; Intel Mac OS X 10_15_7) AppleWebKit/537.36 (KHTML, like Gecko) draw.io/22.1.11 Chrome/114.0.5735.289 Electron/25.9.8 Safari/537.36" etag="0Tt2_lBMMheNsUWNQH-Q" version="22.1.11" type="device">
  <diagram name="Side-1" id="ivJ-7djz7FgPCw38InBv">
    <mxGraphModel dx="1837" dy="1142" grid="1" gridSize="10" guides="1" tooltips="1" connect="1" arrows="1" fold="1" page="1" pageScale="1" pageWidth="827" pageHeight="1169" math="0" shadow="0">
      <root>
        <mxCell id="0" />
        <mxCell id="1" parent="0" />
        <mxCell id="95bS5GK9aQ7ReQLaY_5x-4" value="" style="edgeStyle=orthogonalEdgeStyle;rounded=0;orthogonalLoop=1;jettySize=auto;html=1;" parent="1" source="95bS5GK9aQ7ReQLaY_5x-1" target="95bS5GK9aQ7ReQLaY_5x-3" edge="1">
          <mxGeometry relative="1" as="geometry" />
        </mxCell>
        <mxCell id="95bS5GK9aQ7ReQLaY_5x-1" value="" style="strokeWidth=2;html=1;shape=mxgraph.flowchart.start_2;whiteSpace=wrap;" parent="1" vertex="1">
          <mxGeometry x="394" y="50" width="40" height="40" as="geometry" />
        </mxCell>
        <mxCell id="95bS5GK9aQ7ReQLaY_5x-6" value="" style="edgeStyle=orthogonalEdgeStyle;rounded=0;orthogonalLoop=1;jettySize=auto;html=1;" parent="1" source="95bS5GK9aQ7ReQLaY_5x-3" target="95bS5GK9aQ7ReQLaY_5x-5" edge="1">
          <mxGeometry relative="1" as="geometry" />
        </mxCell>
        <mxCell id="95bS5GK9aQ7ReQLaY_5x-3" value="Pull Request/Push to Main" style="strokeWidth=2;html=1;shape=mxgraph.flowchart.terminator;whiteSpace=wrap;" parent="1" vertex="1">
          <mxGeometry x="351" y="130" width="126" height="60" as="geometry" />
        </mxCell>
        <mxCell id="95bS5GK9aQ7ReQLaY_5x-8" value="" style="edgeStyle=orthogonalEdgeStyle;rounded=0;orthogonalLoop=1;jettySize=auto;html=1;" parent="1" source="95bS5GK9aQ7ReQLaY_5x-5" target="95bS5GK9aQ7ReQLaY_5x-7" edge="1">
          <mxGeometry relative="1" as="geometry" />
        </mxCell>
        <mxCell id="95bS5GK9aQ7ReQLaY_5x-5" value="Setup .NET" style="strokeWidth=2;html=1;shape=mxgraph.flowchart.terminator;whiteSpace=wrap;" parent="1" vertex="1">
          <mxGeometry x="351" y="240" width="126" height="60" as="geometry" />
        </mxCell>
        <mxCell id="95bS5GK9aQ7ReQLaY_5x-10" value="" style="edgeStyle=orthogonalEdgeStyle;rounded=0;orthogonalLoop=1;jettySize=auto;html=1;" parent="1" source="95bS5GK9aQ7ReQLaY_5x-7" target="95bS5GK9aQ7ReQLaY_5x-9" edge="1">
          <mxGeometry relative="1" as="geometry" />
        </mxCell>
        <mxCell id="95bS5GK9aQ7ReQLaY_5x-7" value="Restore Dependencies" style="strokeWidth=2;html=1;shape=mxgraph.flowchart.terminator;whiteSpace=wrap;" parent="1" vertex="1">
          <mxGeometry x="351" y="350" width="126" height="60" as="geometry" />
        </mxCell>
        <mxCell id="95bS5GK9aQ7ReQLaY_5x-12" value="" style="edgeStyle=orthogonalEdgeStyle;rounded=0;orthogonalLoop=1;jettySize=auto;html=1;" parent="1" source="95bS5GK9aQ7ReQLaY_5x-9" target="95bS5GK9aQ7ReQLaY_5x-11" edge="1">
          <mxGeometry relative="1" as="geometry" />
        </mxCell>
        <mxCell id="95bS5GK9aQ7ReQLaY_5x-9" value="Build" style="strokeWidth=2;html=1;shape=mxgraph.flowchart.terminator;whiteSpace=wrap;" parent="1" vertex="1">
          <mxGeometry x="351" y="470" width="126" height="60" as="geometry" />
        </mxCell>
        <mxCell id="95bS5GK9aQ7ReQLaY_5x-15" value="" style="edgeStyle=orthogonalEdgeStyle;rounded=0;orthogonalLoop=1;jettySize=auto;html=1;" parent="1" source="95bS5GK9aQ7ReQLaY_5x-11" target="95bS5GK9aQ7ReQLaY_5x-13" edge="1">
          <mxGeometry relative="1" as="geometry" />
        </mxCell>
        <mxCell id="95bS5GK9aQ7ReQLaY_5x-25" style="edgeStyle=orthogonalEdgeStyle;rounded=0;orthogonalLoop=1;jettySize=auto;html=1;" parent="1" source="95bS5GK9aQ7ReQLaY_5x-11" target="95bS5GK9aQ7ReQLaY_5x-24" edge="1">
          <mxGeometry relative="1" as="geometry" />
        </mxCell>
        <mxCell id="95bS5GK9aQ7ReQLaY_5x-11" value="Succesfull" style="strokeWidth=2;html=1;shape=mxgraph.flowchart.decision;whiteSpace=wrap;" parent="1" vertex="1">
          <mxGeometry x="356" y="585" width="116" height="70" as="geometry" />
        </mxCell>
        <mxCell id="95bS5GK9aQ7ReQLaY_5x-16" value="" style="edgeStyle=orthogonalEdgeStyle;rounded=0;orthogonalLoop=1;jettySize=auto;html=1;" parent="1" source="95bS5GK9aQ7ReQLaY_5x-13" target="95bS5GK9aQ7ReQLaY_5x-14" edge="1">
          <mxGeometry relative="1" as="geometry" />
        </mxCell>
        <mxCell id="95bS5GK9aQ7ReQLaY_5x-13" value="Test" style="strokeWidth=2;html=1;shape=mxgraph.flowchart.terminator;whiteSpace=wrap;" parent="1" vertex="1">
          <mxGeometry x="351" y="710" width="126" height="60" as="geometry" />
        </mxCell>
        <mxCell id="95bS5GK9aQ7ReQLaY_5x-18" value="" style="edgeStyle=orthogonalEdgeStyle;rounded=0;orthogonalLoop=1;jettySize=auto;html=1;" parent="1" source="95bS5GK9aQ7ReQLaY_5x-14" target="95bS5GK9aQ7ReQLaY_5x-17" edge="1">
          <mxGeometry relative="1" as="geometry" />
        </mxCell>
        <mxCell id="95bS5GK9aQ7ReQLaY_5x-14" value="Succesfull" style="strokeWidth=2;html=1;shape=mxgraph.flowchart.decision;whiteSpace=wrap;" parent="1" vertex="1">
          <mxGeometry x="356" y="820" width="116" height="70" as="geometry" />
        </mxCell>
        <mxCell id="95bS5GK9aQ7ReQLaY_5x-23" value="" style="edgeStyle=orthogonalEdgeStyle;rounded=0;orthogonalLoop=1;jettySize=auto;html=1;entryX=0.5;entryY=0;entryDx=0;entryDy=0;entryPerimeter=0;" parent="1" source="95bS5GK9aQ7ReQLaY_5x-17" target="95bS5GK9aQ7ReQLaY_5x-21" edge="1">
          <mxGeometry relative="1" as="geometry" />
        </mxCell>
        <mxCell id="95bS5GK9aQ7ReQLaY_5x-17" value="Workflow Succeded" style="strokeWidth=2;html=1;shape=mxgraph.flowchart.terminator;whiteSpace=wrap;" parent="1" vertex="1">
          <mxGeometry x="351" y="930" width="126" height="60" as="geometry" />
        </mxCell>
        <mxCell id="95bS5GK9aQ7ReQLaY_5x-21" value="" style="strokeWidth=2;html=1;shape=mxgraph.flowchart.start_2;whiteSpace=wrap;fillColor=#f9f7ed;strokeColor=#000000;" parent="1" vertex="1">
          <mxGeometry x="394" y="1040" width="40" height="40" as="geometry" />
        </mxCell>
        <mxCell id="95bS5GK9aQ7ReQLaY_5x-22" value="" style="strokeWidth=2;html=1;shape=mxgraph.flowchart.start_2;whiteSpace=wrap;" parent="1" vertex="1">
          <mxGeometry x="399" y="1045" width="29" height="30" as="geometry" />
        </mxCell>
        <mxCell id="95bS5GK9aQ7ReQLaY_5x-24" value="Workflow Failed" style="strokeWidth=2;html=1;shape=mxgraph.flowchart.terminator;whiteSpace=wrap;" parent="1" vertex="1">
          <mxGeometry x="550" y="825" width="126" height="60" as="geometry" />
        </mxCell>
        <mxCell id="95bS5GK9aQ7ReQLaY_5x-26" style="edgeStyle=orthogonalEdgeStyle;rounded=0;orthogonalLoop=1;jettySize=auto;html=1;entryX=0;entryY=0.5;entryDx=0;entryDy=0;entryPerimeter=0;" parent="1" source="95bS5GK9aQ7ReQLaY_5x-14" target="95bS5GK9aQ7ReQLaY_5x-24" edge="1">
          <mxGeometry relative="1" as="geometry" />
        </mxCell>
        <mxCell id="95bS5GK9aQ7ReQLaY_5x-27" style="edgeStyle=orthogonalEdgeStyle;rounded=0;orthogonalLoop=1;jettySize=auto;html=1;entryX=1;entryY=0.5;entryDx=0;entryDy=0;entryPerimeter=0;exitX=0.5;exitY=1;exitDx=0;exitDy=0;exitPerimeter=0;" parent="1" source="95bS5GK9aQ7ReQLaY_5x-24" target="95bS5GK9aQ7ReQLaY_5x-21" edge="1">
          <mxGeometry relative="1" as="geometry">
            <mxPoint x="600" y="930" as="sourcePoint" />
          </mxGeometry>
        </mxCell>
        <mxCell id="95bS5GK9aQ7ReQLaY_5x-28" value="No" style="text;html=1;strokeColor=none;fillColor=none;align=center;verticalAlign=middle;whiteSpace=wrap;rounded=0;" parent="1" vertex="1">
          <mxGeometry x="450" y="585" width="60" height="30" as="geometry" />
        </mxCell>
        <mxCell id="95bS5GK9aQ7ReQLaY_5x-29" value="No" style="text;html=1;strokeColor=none;fillColor=none;align=center;verticalAlign=middle;whiteSpace=wrap;rounded=0;" parent="1" vertex="1">
          <mxGeometry x="460" y="825" width="60" height="30" as="geometry" />
        </mxCell>
        <mxCell id="95bS5GK9aQ7ReQLaY_5x-30" value="Yes" style="text;html=1;strokeColor=none;fillColor=none;align=center;verticalAlign=middle;whiteSpace=wrap;rounded=0;" parent="1" vertex="1">
          <mxGeometry x="400" y="655" width="60" height="30" as="geometry" />
        </mxCell>
        <mxCell id="95bS5GK9aQ7ReQLaY_5x-31" value="Yes" style="text;html=1;strokeColor=none;fillColor=none;align=center;verticalAlign=middle;whiteSpace=wrap;rounded=0;" parent="1" vertex="1">
          <mxGeometry x="400" y="890" width="60" height="30" as="geometry" />
        </mxCell>
        <mxCell id="XBeFyxeRBJFH0mMxPhcw-1" value="" style="rounded=0;whiteSpace=wrap;html=1;fillColor=none;" vertex="1" parent="1">
          <mxGeometry x="40" y="70" width="190" height="390" as="geometry" />
        </mxCell>
        <mxCell id="XBeFyxeRBJFH0mMxPhcw-3" value="Condition" style="strokeWidth=2;html=1;shape=mxgraph.flowchart.decision;whiteSpace=wrap;" vertex="1" parent="1">
          <mxGeometry x="75.94" y="190" width="118.12" height="74" as="geometry" />
        </mxCell>
        <mxCell id="XBeFyxeRBJFH0mMxPhcw-4" value="" style="strokeWidth=2;html=1;shape=mxgraph.flowchart.start_2;whiteSpace=wrap;" vertex="1" parent="1">
          <mxGeometry x="75" y="320" width="30" height="30" as="geometry" />
        </mxCell>
        <mxCell id="XBeFyxeRBJFH0mMxPhcw-7" value="Initial state" style="text;html=1;strokeColor=none;fillColor=none;align=center;verticalAlign=middle;whiteSpace=wrap;rounded=0;" vertex="1" parent="1">
          <mxGeometry x="125" y="320" width="60" height="30" as="geometry" />
        </mxCell>
        <mxCell id="XBeFyxeRBJFH0mMxPhcw-8" value="Final state" style="text;html=1;strokeColor=none;fillColor=none;align=center;verticalAlign=middle;whiteSpace=wrap;rounded=0;" vertex="1" parent="1">
          <mxGeometry x="125" y="385" width="60" height="30" as="geometry" />
        </mxCell>
        <mxCell id="XBeFyxeRBJFH0mMxPhcw-9" value="Activity" style="strokeWidth=2;html=1;shape=mxgraph.flowchart.terminator;whiteSpace=wrap;" vertex="1" parent="1">
          <mxGeometry x="85" y="100" width="100" height="60" as="geometry" />
        </mxCell>
        <mxCell id="XBeFyxeRBJFH0mMxPhcw-10" value="" style="strokeWidth=2;html=1;shape=mxgraph.flowchart.start_2;whiteSpace=wrap;fillColor=#f9f7ed;strokeColor=#000000;" vertex="1" parent="1">
          <mxGeometry x="70" y="380" width="40" height="40" as="geometry" />
        </mxCell>
        <mxCell id="XBeFyxeRBJFH0mMxPhcw-11" value="" style="strokeWidth=2;html=1;shape=mxgraph.flowchart.start_2;whiteSpace=wrap;" vertex="1" parent="1">
          <mxGeometry x="75" y="385" width="29" height="30" as="geometry" />
        </mxCell>
      </root>
    </mxGraphModel>
  </diagram>
</mxfile>
